<svg height='300px' width='300px'  fill="#7d40e7" xmlns="http://www.w3.org/2000/svg" xmlns:xlink="http://www.w3.org/1999/xlink" version="1.1" x="0px" y="0px" viewBox="0 0 64 64" enable-background="new 0 0 64 64" xml:space="preserve"><g><g><path d="M62.201,31c0-0.218-0.07-0.419-0.189-0.584l-4.44-9.345c-0.166-0.349-0.518-0.571-0.903-0.571h-8.513l2.047-5.66    c0.11-0.307,0.065-0.648-0.122-0.915c-0.187-0.267-0.492-0.426-0.818-0.426H15.658c-0.421,0-0.797,0.264-0.94,0.66l-1.146,3.171    H3.182c-0.553,0-1,0.448-1,1s0.447,1,1,1h9.666l-0.724,2H8.648c-0.553,0-1,0.448-1,1s0.447,1,1,1h2.753l-0.965,2.667H5.17    c-0.553,0-1,0.448-1,1s0.447,1,1,1h4.543L6.399,37.16l-2.17,6c-0.11,0.307-0.065,0.648,0.122,0.915    C4.538,44.341,4.844,44.5,5.17,44.5h5.261c-0.108,0.216-0.206,0.436-0.287,0.66c-0.511,1.413-0.391,2.811,0.329,3.836    c0.681,0.97,1.796,1.504,3.14,1.504c2.623,0,5.418-2.047,6.362-4.659c0.163-0.449,0.26-0.9,0.295-1.341h21.102    c-0.108,0.217-0.206,0.437-0.287,0.66c-0.512,1.415-0.393,2.813,0.326,3.838c0.68,0.969,1.796,1.502,3.143,1.502    c2.623,0,5.418-2.047,6.362-4.659c0.163-0.449,0.26-0.9,0.295-1.341h5.451c0.421,0,0.797-0.264,0.94-0.66l4.481-12.393    C62.152,31.312,62.201,31.164,62.201,31z M59.6,30h-6.93l1.266-3.5h4.001L59.6,30z M11.84,27.997h4.428c0.553,0,1-0.448,1-1    s-0.447-1-1-1h-3.704l0.965-2.667h10.357c0.553,0,1-0.448,1-1s-0.447-1-1-1h-9.634l0.723-2h4.313c0.553,0,1-0.448,1-1    s-0.447-1-1-1h-3.589L16.36,15.5h31.477l-2.046,5.657c-0.001,0.001-0.002,0.002-0.002,0.003L40.241,36.5H8.765L11.84,27.997z     M18.094,45.16c-0.654,1.811-2.707,3.34-4.481,3.34c-0.684,0-1.203-0.226-1.503-0.653c-0.34-0.484-0.371-1.216-0.085-2.006    c0.208-0.575,0.573-1.146,1.065-1.663c0.942-1.02,2.282-1.678,3.416-1.678c0.957,0,1.573,0.428,1.737,1.209    C18.334,44.137,18.283,44.639,18.094,45.16z M49.034,45.16c-0.654,1.811-2.707,3.34-4.481,3.34c-0.686,0-1.206-0.225-1.505-0.651    c-0.34-0.483-0.37-1.216-0.083-2.008c0.207-0.571,0.57-1.144,1.052-1.659c0.968-1.038,2.281-1.682,3.43-1.682    c0.956,0,1.573,0.428,1.736,1.208C49.274,44.138,49.223,44.64,49.034,45.16z M55.959,42.5h-5.085    c-0.039-0.082-0.088-0.156-0.133-0.233c-0.03-0.054-0.058-0.11-0.092-0.162c-0.101-0.154-0.21-0.301-0.333-0.436    c-0.006-0.006-0.013-0.012-0.02-0.019c-0.121-0.13-0.254-0.249-0.396-0.359c-0.049-0.038-0.102-0.07-0.152-0.105    c-0.104-0.072-0.21-0.141-0.322-0.202c-0.063-0.035-0.128-0.065-0.194-0.096c-0.111-0.052-0.226-0.099-0.344-0.141    c-0.069-0.025-0.139-0.049-0.21-0.07c-0.13-0.038-0.265-0.067-0.402-0.093c-0.065-0.012-0.128-0.028-0.194-0.037    c-0.206-0.029-0.417-0.047-0.636-0.047c-0.206,0-0.414,0.014-0.623,0.039c-0.068,0.008-0.138,0.024-0.207,0.035    c-0.14,0.021-0.279,0.043-0.419,0.076c-0.083,0.02-0.165,0.046-0.248,0.068c-0.125,0.035-0.251,0.069-0.376,0.112    c-0.088,0.03-0.174,0.066-0.261,0.1c-0.119,0.046-0.237,0.093-0.355,0.147c-0.088,0.04-0.176,0.085-0.264,0.13    c-0.113,0.058-0.226,0.116-0.337,0.181c-0.088,0.05-0.174,0.104-0.26,0.158c-0.108,0.068-0.216,0.139-0.321,0.213    c-0.084,0.059-0.167,0.12-0.249,0.183c-0.104,0.08-0.206,0.163-0.307,0.249c-0.079,0.066-0.156,0.134-0.232,0.204    c-0.04,0.036-0.081,0.068-0.12,0.105H19.935c-0.04-0.084-0.09-0.16-0.136-0.239c-0.029-0.051-0.056-0.105-0.088-0.155    c-0.101-0.155-0.211-0.302-0.335-0.437c-0.005-0.006-0.011-0.011-0.016-0.016c-0.122-0.131-0.256-0.25-0.398-0.361    c-0.049-0.038-0.102-0.07-0.152-0.105c-0.104-0.072-0.21-0.141-0.323-0.202c-0.063-0.035-0.128-0.065-0.193-0.096    c-0.111-0.052-0.226-0.099-0.344-0.141c-0.069-0.025-0.139-0.049-0.211-0.07c-0.13-0.038-0.265-0.067-0.401-0.093    c-0.065-0.012-0.128-0.028-0.195-0.037c-0.206-0.029-0.417-0.047-0.636-0.047c-0.204,0-0.41,0.014-0.618,0.04    c-0.069,0.008-0.14,0.025-0.21,0.036c-0.138,0.022-0.275,0.044-0.414,0.077c-0.086,0.021-0.173,0.048-0.26,0.072    c-0.121,0.034-0.241,0.067-0.362,0.109c-0.095,0.033-0.188,0.072-0.283,0.109c-0.11,0.044-0.221,0.087-0.329,0.137    c-0.101,0.045-0.198,0.096-0.297,0.146c-0.101,0.052-0.201,0.104-0.3,0.161c-0.102,0.058-0.201,0.119-0.3,0.183    c-0.093,0.059-0.185,0.119-0.274,0.182c-0.1,0.069-0.196,0.14-0.292,0.214c-0.088,0.068-0.175,0.139-0.261,0.211    c-0.089,0.075-0.177,0.151-0.263,0.23c-0.035,0.032-0.072,0.061-0.106,0.094H6.595l1.447-4h32.901c0.421,0,0.797-0.264,0.94-0.66    l5.548-15.34h8.604l0.95,2h-3.752c-0.421,0-0.797,0.264-0.94,0.66l-1.99,5.5c-0.11,0.307-0.065,0.648,0.122,0.915    C50.612,31.841,50.918,32,51.244,32h8.513L55.959,42.5z"></path></g></g></svg>